<svg xmlns="http://www.w3.org/2000/svg" width="1280" height="720" viewBox="0 0 1280 720" role="img" aria-labelledby="title desc">
  <title id="title">NLP and ML support ticket classification pipeline</title>
  <desc id="desc">A diagram showing support tickets flowing through an NLP pre-processing pipeline into an SVM classifier, producing classified categories with an 83.21% F1 Score result.</desc>
  <rect width="1280" height="720" fill="#f7f9fc"/>
  <rect x="64" y="56" width="1152" height="608" rx="28" fill="#ffffff" stroke="#dbe3ee" stroke-width="2"/>

  <!-- Left panel: Support Ticket -->
  <rect x="96" y="96" width="264" height="528" rx="20" fill="#f8fafc" stroke="#dbe3ee" stroke-width="2"/>
  <rect x="128" y="132" width="160" height="14" rx="7" fill="#122033" opacity="0.72"/>
  <rect x="128" y="162" width="200" height="10" rx="5" fill="#7d8ca0" opacity="0.3"/>
  <rect x="128" y="208" width="200" height="8" rx="4" fill="#7d8ca0" opacity="0.25"/>
  <rect x="128" y="226" width="176" height="8" rx="4" fill="#7d8ca0" opacity="0.2"/>
  <rect x="128" y="244" width="190" height="8" rx="4" fill="#7d8ca0" opacity="0.25"/>
  <rect x="128" y="262" width="140" height="8" rx="4" fill="#7d8ca0" opacity="0.2"/>
  <rect x="128" y="296" width="200" height="8" rx="4" fill="#7d8ca0" opacity="0.25"/>
  <rect x="128" y="314" width="168" height="8" rx="4" fill="#7d8ca0" opacity="0.2"/>
  <rect x="128" y="332" width="190" height="8" rx="4" fill="#7d8ca0" opacity="0.25"/>
  <rect x="128" y="350" width="120" height="8" rx="4" fill="#7d8ca0" opacity="0.2"/>
  <rect x="128" y="384" width="200" height="8" rx="4" fill="#7d8ca0" opacity="0.25"/>
  <rect x="128" y="402" width="155" height="8" rx="4" fill="#7d8ca0" opacity="0.2"/>
  <rect x="128" y="446" width="120" height="28" rx="8" fill="#edf4ff" stroke="#c4d0e0" stroke-width="1.5"/>
  <rect x="260" y="446" width="72" height="28" rx="8" fill="#1f5fd6" opacity="0.12" stroke="#1f5fd6" stroke-width="1.5"/>

  <!-- Arrow 1 -->
  <line x1="372" y1="360" x2="400" y2="360" stroke="#dbe3ee" stroke-width="2"/>
  <polygon points="396,354 408,360 396,366" fill="#7d8ca0"/>

  <!-- Middle panel: NLP Pipeline -->
  <rect x="408" y="96" width="272" height="528" rx="20" fill="#f8fafc" stroke="#dbe3ee" stroke-width="2"/>
  <rect x="440" y="132" width="148" height="14" rx="7" fill="#122033" opacity="0.72"/>
  <rect x="440" y="162" width="208" height="10" rx="5" fill="#7d8ca0" opacity="0.3"/>

  <rect x="440" y="200" width="208" height="44" rx="12" fill="#ffffff" stroke="#dbe3ee" stroke-width="1.5"/>
  <rect x="460" y="216" width="88" height="12" rx="6" fill="#7d8ca0" opacity="0.35"/>

  <rect x="440" y="256" width="208" height="44" rx="12" fill="#ffffff" stroke="#dbe3ee" stroke-width="1.5"/>
  <rect x="460" y="272" width="104" height="12" rx="6" fill="#7d8ca0" opacity="0.35"/>

  <rect x="440" y="312" width="208" height="44" rx="12" fill="#ffffff" stroke="#dbe3ee" stroke-width="1.5"/>
  <rect x="460" y="328" width="96" height="12" rx="6" fill="#7d8ca0" opacity="0.35"/>

  <rect x="440" y="368" width="208" height="44" rx="12" fill="#ffffff" stroke="#dbe3ee" stroke-width="1.5"/>
  <rect x="460" y="384" width="128" height="12" rx="6" fill="#7d8ca0" opacity="0.35"/>

  <rect x="440" y="432" width="208" height="44" rx="12" fill="#edf4ff" stroke="#1f5fd6" stroke-width="1.5"/>
  <rect x="460" y="448" width="72" height="12" rx="6" fill="#1f5fd6" opacity="0.5"/>
  <rect x="540" y="448" width="88" height="12" rx="6" fill="#1f5fd6" opacity="0.3"/>

  <!-- 1297 tickets badge -->
  <rect x="440" y="510" width="208" height="36" rx="10" fill="#f0f4f8" stroke="#dbe3ee" stroke-width="1"/>
  <rect x="460" y="521" width="64" height="14" rx="7" fill="#122033" opacity="0.55"/>
  <rect x="534" y="524" width="96" height="9" rx="4" fill="#7d8ca0" opacity="0.3"/>

  <!-- Arrow 2 -->
  <line x1="692" y1="360" x2="720" y2="360" stroke="#dbe3ee" stroke-width="2"/>
  <polygon points="716,354 728,360 716,366" fill="#7d8ca0"/>

  <!-- Right panel: SVM + Results -->
  <rect x="728" y="96" width="488" height="528" rx="20" fill="#f8fafc" stroke="#dbe3ee" stroke-width="2"/>
  <rect x="760" y="132" width="112" height="14" rx="7" fill="#122033" opacity="0.72"/>
  <rect x="760" y="162" width="192" height="10" rx="5" fill="#7d8ca0" opacity="0.3"/>

  <!-- SVM chart placeholder -->
  <rect x="760" y="192" width="424" height="160" rx="12" fill="#ffffff" stroke="#dbe3ee" stroke-width="1.5"/>
  <circle cx="810" cy="280" r="7" fill="#1f5fd6" opacity="0.7"/>
  <circle cx="836" cy="260" r="7" fill="#1f5fd6" opacity="0.7"/>
  <circle cx="820" cy="298" r="7" fill="#1f5fd6" opacity="0.7"/>
  <circle cx="856" cy="272" r="7" fill="#1f5fd6" opacity="0.7"/>
  <circle cx="844" cy="248" r="7" fill="#1f5fd6" opacity="0.7"/>
  <circle cx="920" cy="220" r="7" fill="#7d8ca0" opacity="0.5"/>
  <circle cx="944" cy="240" r="7" fill="#7d8ca0" opacity="0.5"/>
  <circle cx="908" cy="210" r="7" fill="#7d8ca0" opacity="0.5"/>
  <circle cx="960" cy="228" r="7" fill="#7d8ca0" opacity="0.5"/>
  <circle cx="932" cy="252" r="7" fill="#7d8ca0" opacity="0.5"/>
  <line x1="860" y1="344" x2="900" y2="196" stroke="#1f5fd6" stroke-width="1.5" stroke-dasharray="6 3" opacity="0.5"/>

  <!-- F1 Score highlight -->
  <rect x="760" y="372" width="200" height="100" rx="12" fill="#edf4ff" stroke="#1f5fd6" stroke-width="1.5"/>
  <rect x="784" y="394" width="80" height="12" rx="6" fill="#1f5fd6" opacity="0.35"/>
  <rect x="784" y="430" width="64" height="24" rx="6" fill="#1f5fd6" opacity="0.55"/>
  <rect x="856" y="436" width="80" height="12" rx="6" fill="#1f5fd6" opacity="0.25"/>

  <!-- Classification results -->
  <rect x="976" y="372" width="208" height="252" rx="12" fill="#ffffff" stroke="#dbe3ee" stroke-width="1.5"/>
  <rect x="996" y="392" width="128" height="12" rx="6" fill="#122033" opacity="0.5"/>
  <rect x="996" y="420" width="168" height="30" rx="8" fill="#f0f7ff" stroke="#dbe3ee" stroke-width="1"/>
  <rect x="996" y="460" width="168" height="30" rx="8" fill="#f0f7ff" stroke="#dbe3ee" stroke-width="1"/>
  <rect x="996" y="500" width="168" height="30" rx="8" fill="#f0f7ff" stroke="#dbe3ee" stroke-width="1"/>
  <rect x="996" y="540" width="168" height="30" rx="8" fill="#f0f7ff" stroke="#dbe3ee" stroke-width="1"/>
  <rect x="996" y="580" width="168" height="28" rx="8" fill="#f8fafc" stroke="#dbe3ee" stroke-width="1"/>
  <circle cx="1012" cy="435" r="5" fill="#1f5fd6" opacity="0.6"/>
  <circle cx="1012" cy="475" r="5" fill="#1f5fd6" opacity="0.6"/>
  <circle cx="1012" cy="515" r="5" fill="#1f5fd6" opacity="0.6"/>
  <circle cx="1012" cy="555" r="5" fill="#1f5fd6" opacity="0.6"/>
  <circle cx="1012" cy="594" r="5" fill="#dbe3ee"/>
  <rect x="1024" y="429" width="88" height="10" rx="5" fill="#7d8ca0" opacity="0.3"/>
  <rect x="1024" y="469" width="104" height="10" rx="5" fill="#7d8ca0" opacity="0.3"/>
  <rect x="1024" y="509" width="80" height="10" rx="5" fill="#7d8ca0" opacity="0.3"/>
  <rect x="1024" y="549" width="96" height="10" rx="5" fill="#7d8ca0" opacity="0.3"/>
  <rect x="1024" y="588" width="72" height="8" rx="4" fill="#7d8ca0" opacity="0.2"/>

  <!-- Ticket count and result bottom row -->
  <rect x="760" y="488" width="200" height="52" rx="12" fill="#ffffff" stroke="#dbe3ee" stroke-width="1.5"/>
  <rect x="784" y="505" width="72" height="10" rx="5" fill="#7d8ca0" opacity="0.3"/>
  <rect x="784" y="521" width="152" height="10" rx="5" fill="#7d8ca0" opacity="0.2"/>
</svg>
