<svg xmlns="http://www.w3.org/2000/svg" width="1280" height="720" viewBox="0 0 1280 720" role="img" aria-labelledby="title desc">
  <title id="title">Cloud Ops Console placeholder</title>
  <desc id="desc">A simplified dashboard placeholder with panels for incidents, service status, and response actions.</desc>
  <rect width="1280" height="720" fill="#f7f9fc"/>
  <rect x="64" y="56" width="1152" height="608" rx="28" fill="#ffffff" stroke="#dbe3ee" stroke-width="2"/>
  <rect x="104" y="104" width="360" height="144" rx="18" fill="#edf4ff"/>
  <rect x="496" y="104" width="296" height="144" rx="18" fill="#f8fafc" stroke="#dbe3ee" stroke-width="2"/>
  <rect x="824" y="104" width="352" height="144" rx="18" fill="#f8fafc" stroke="#dbe3ee" stroke-width="2"/>
  <rect x="104" y="288" width="520" height="320" rx="18" fill="#f8fafc" stroke="#dbe3ee" stroke-width="2"/>
  <rect x="656" y="288" width="520" height="320" rx="18" fill="#f8fafc" stroke="#dbe3ee" stroke-width="2"/>
  <rect x="132" y="134" width="120" height="16" rx="8" fill="#1f5fd6" opacity="0.8"/>
  <rect x="132" y="166" width="220" height="12" rx="6" fill="#7d8ca0" opacity="0.45"/>
  <rect x="132" y="192" width="180" height="12" rx="6" fill="#7d8ca0" opacity="0.3"/>
  <rect x="524" y="136" width="144" height="14" rx="7" fill="#122033" opacity="0.75"/>
  <rect x="524" y="168" width="220" height="12" rx="6" fill="#7d8ca0" opacity="0.35"/>
  <rect x="856" y="136" width="182" height="14" rx="7" fill="#122033" opacity="0.75"/>
  <rect x="856" y="168" width="246" height="12" rx="6" fill="#7d8ca0" opacity="0.35"/>
  <rect x="140" y="332" width="448" height="20" rx="10" fill="#122033" opacity="0.78"/>
  <rect x="140" y="372" width="280" height="12" rx="6" fill="#7d8ca0" opacity="0.34"/>
  <rect x="140" y="418" width="408" height="52" rx="16" fill="#ffffff" stroke="#dbe3ee" stroke-width="2"/>
  <rect x="140" y="490" width="408" height="52" rx="16" fill="#ffffff" stroke="#dbe3ee" stroke-width="2"/>
  <rect x="140" y="562" width="408" height="52" rx="16" fill="#ffffff" stroke="#dbe3ee" stroke-width="2"/>
  <circle cx="702" cy="420" r="46" fill="#edf4ff" stroke="#dbe3ee" stroke-width="2"/>
  <path d="M702 392v28l24 18" fill="none" stroke="#1f5fd6" stroke-width="8" stroke-linecap="round" stroke-linejoin="round"/>
  <rect x="776" y="394" width="340" height="18" rx="9" fill="#122033" opacity="0.74"/>
  <rect x="776" y="430" width="280" height="12" rx="6" fill="#7d8ca0" opacity="0.35"/>
  <rect x="776" y="478" width="120" height="40" rx="20" fill="#edf4ff" stroke="#c4d0e0" stroke-width="2"/>
</svg>
