<svg xmlns="http://www.w3.org/2000/svg" width="1280" height="720" viewBox="0 0 1280 720" role="img" aria-labelledby="title desc">
  <title id="title">Checkout Risk Engine placeholder</title>
  <desc id="desc">A simplified admin interface placeholder with a rules table, metrics charts, and a review queue.</desc>
  <rect width="1280" height="720" fill="#f7f9fc"/>
  <rect x="64" y="56" width="1152" height="608" rx="28" fill="#ffffff" stroke="#dbe3ee" stroke-width="2"/>
  <rect x="104" y="104" width="288" height="504" rx="20" fill="#f8fafc" stroke="#dbe3ee" stroke-width="2"/>
  <rect x="424" y="104" width="752" height="224" rx="20" fill="#f8fafc" stroke="#dbe3ee" stroke-width="2"/>
  <rect x="424" y="360" width="752" height="248" rx="20" fill="#f8fafc" stroke="#dbe3ee" stroke-width="2"/>
  <rect x="136" y="138" width="132" height="16" rx="8" fill="#122033" opacity="0.76"/>
  <rect x="136" y="176" width="216" height="12" rx="6" fill="#7d8ca0" opacity="0.35"/>
  <rect x="136" y="226" width="224" height="46" rx="14" fill="#edf4ff" stroke="#c4d0e0" stroke-width="2"/>
  <rect x="136" y="292" width="224" height="46" rx="14" fill="#ffffff" stroke="#dbe3ee" stroke-width="2"/>
  <rect x="136" y="358" width="224" height="46" rx="14" fill="#ffffff" stroke="#dbe3ee" stroke-width="2"/>
  <rect x="456" y="136" width="200" height="16" rx="8" fill="#122033" opacity="0.78"/>
  <rect x="456" y="176" width="320" height="12" rx="6" fill="#7d8ca0" opacity="0.35"/>
  <path d="M472 274h76l52-86 88 54 84-96 64 30 80-46 116 144" fill="none" stroke="#1f5fd6" stroke-width="8" stroke-linecap="round" stroke-linejoin="round"/>
  <circle cx="600" cy="188" r="8" fill="#1f5fd6"/>
  <circle cx="688" cy="242" r="8" fill="#1f5fd6"/>
  <circle cx="772" cy="146" r="8" fill="#1f5fd6"/>
  <circle cx="916" cy="130" r="8" fill="#1f5fd6"/>
  <rect x="456" y="394" width="188" height="16" rx="8" fill="#122033" opacity="0.78"/>
  <rect x="456" y="434" width="280" height="12" rx="6" fill="#7d8ca0" opacity="0.35"/>
  <rect x="456" y="482" width="688" height="42" rx="14" fill="#ffffff" stroke="#dbe3ee" stroke-width="2"/>
  <rect x="456" y="538" width="688" height="42" rx="14" fill="#ffffff" stroke="#dbe3ee" stroke-width="2"/>
  <rect x="968" y="492" width="144" height="22" rx="11" fill="#edf4ff"/>
  <rect x="990" y="548" width="122" height="22" rx="11" fill="#edf4ff"/>
</svg>
